<svg xmlns="http://www.w3.org/2000/svg" version="1.1" xmlns:xlink="http://www.w3.org/1999/xlink" width="1000" height="1000"><g clip-path="url(#SvgjsClipPath1003)"><rect width="1000" height="1000" fill="#ffffff"></rect><g transform="matrix(3.5,0,0,3.5,150,150)"><svg xmlns="http://www.w3.org/2000/svg" version="1.1" xmlns:xlink="http://www.w3.org/1999/xlink" width="200" height="200"><svg xmlns="http://www.w3.org/2000/svg" version="1.1" xmlns:xlink="http://www.w3.org/1999/xlink" viewBox="0 0 200 200"><rect width="200" height="200" fill="url('#gradient')"></rect><defs><linearGradient id="gradient" gradientTransform="rotate(45 0.5 0.5)"><stop offset="0%" stop-color="#d5d8db"></stop><stop offset="100%" stop-color="#efefef"></stop></linearGradient><clipPath id="SvgjsClipPath1003"><rect width="1000" height="1000" x="0" y="0" rx="350" ry="350"></rect></clipPath></defs><g><g fill="#c52727" transform="matrix(1.2404603270745003,0,0,1.2404603270745003,9.164753410073939,106.72321686608946)" stroke="#f71412" stroke-width="0.25"><path d="M13.12-7.47L13.12-6.82Q13.12-4.74 12.34-3.13Q11.57-1.53 10.15-0.67Q8.73 0.20 6.91 0.20Q5.10 0.20 3.69-0.64Q2.29-1.47 1.50-3.03Q0.71-4.58 0.67-6.59L0.67-6.59L0.67-7.39Q0.67-9.48 1.44-11.08Q2.21-12.68 3.64-13.54Q5.07-14.41 6.89-14.41L6.89-14.41Q8.70-14.41 10.12-13.55Q11.53-12.70 12.32-11.11Q13.11-9.52 13.12-7.47L13.12-7.47ZM9.63-6.76L9.63-7.41Q9.63-9.53 8.92-10.63Q8.21-11.73 6.89-11.73L6.89-11.73Q4.32-11.73 4.17-7.86L4.17-7.86L4.16-6.82Q4.16-4.73 4.85-3.60Q5.55-2.48 6.91-2.48L6.91-2.48Q8.21-2.48 8.92-3.58Q9.62-4.69 9.63-6.76L9.63-6.76ZM14.67-10.57L17.75-10.57L17.86-9.33Q18.96-10.76 20.88-10.76L20.88-10.76Q22.53-10.76 23.34-9.78Q24.16-8.79 24.19-6.81L24.19-6.81L24.19 0L20.89 0L20.89-6.67Q20.89-7.47 20.57-7.85Q20.24-8.22 19.39-8.22L19.39-8.22Q18.43-8.22 17.96-7.46L17.96-7.46L17.96 0L14.67 0L14.67-10.57ZM29.48-15L29.48 0L26.18 0L26.18-15L29.48-15ZM34.98-10.57L34.98 0L31.68 0L31.68-10.57L34.98-10.57ZM31.48-13.29L31.48-13.29Q31.48-13.99 31.99-14.44Q32.50-14.89 33.31-14.89Q34.12-14.89 34.63-14.44Q35.14-13.99 35.14-13.29Q35.14-12.59 34.63-12.14Q34.12-11.69 33.31-11.69Q32.50-11.69 31.99-12.14Q31.48-12.59 31.48-13.29ZM36.94-10.57L40.03-10.57L40.14-9.33Q41.23-10.76 43.15-10.76L43.15-10.76Q44.80-10.76 45.62-9.78Q46.44-8.79 46.46-6.81L46.46-6.81L46.46 0L43.16 0L43.16-6.67Q43.16-7.47 42.84-7.85Q42.52-8.22 41.67-8.22L41.67-8.22Q40.70-8.22 40.23-7.46L40.23-7.46L40.23 0L36.94 0L36.94-10.57ZM53.40 0.20L53.40 0.20Q50.97 0.20 49.46-1.25Q47.96-2.71 47.96-5.03L47.96-5.03L47.96-5.30Q47.96-6.92 48.56-8.16Q49.16-9.40 50.31-10.08Q51.46-10.76 53.05-10.76L53.05-10.76Q55.27-10.76 56.56-9.38Q57.85-8.00 57.85-5.53L57.85-5.53L57.85-4.25L51.31-4.25Q51.48-3.36 52.08-2.85Q52.68-2.34 53.62-2.34L53.62-2.34Q55.19-2.34 56.06-3.44L56.06-3.44L57.57-1.66Q56.95-0.81 55.83-0.31Q54.70 0.20 53.40 0.20ZM53.03-8.22L53.03-8.22Q51.58-8.22 51.31-6.31L51.31-6.31L54.63-6.31L54.63-6.56Q54.65-7.35 54.23-7.79Q53.81-8.22 53.03-8.22ZM65.61-7.40L65.61-4.85L59.74-4.85L59.74-7.40L65.61-7.40ZM71.75-14.22L71.75-2.64L77.71-2.64L77.71 0L68.32 0L68.32-14.22L71.75-14.22ZM84.12 0.20L84.12 0.20Q81.69 0.20 80.19-1.25Q78.68-2.71 78.68-5.03L78.68-5.03L78.68-5.30Q78.68-6.92 79.28-8.16Q79.88-9.40 81.04-10.08Q82.19-10.76 83.77-10.76L83.77-10.76Q86.00-10.76 87.29-9.38Q88.57-8.00 88.57-5.53L88.57-5.53L88.57-4.25L82.03-4.25Q82.21-3.36 82.80-2.85Q83.40-2.34 84.35-2.34L84.35-2.34Q85.91-2.34 86.79-3.44L86.79-3.44L88.29-1.66Q87.68-0.81 86.55-0.31Q85.42 0.20 84.12 0.20ZM83.75-8.22L83.75-8.22Q82.30-8.22 82.03-6.31L82.03-6.31L85.35-6.31L85.35-6.56Q85.37-7.35 84.95-7.79Q84.53-8.22 83.75-8.22ZM99.14 0L95.85 0Q95.67-0.32 95.54-0.95L95.54-0.95Q94.63 0.20 93.00 0.20L93.00 0.20Q91.50 0.20 90.46-0.71Q89.41-1.61 89.41-2.98L89.41-2.98Q89.41-4.70 90.68-5.58Q91.95-6.46 94.38-6.46L94.38-6.46L95.39-6.46L95.39-7.01Q95.39-8.47 94.13-8.47L94.13-8.47Q92.96-8.47 92.96-7.31L92.96-7.31L89.67-7.31Q89.67-8.85 90.97-9.80Q92.28-10.76 94.30-10.76Q96.32-10.76 97.49-9.78Q98.66-8.79 98.69-7.07L98.69-7.07L98.69-2.39Q98.71-0.94 99.14-0.17L99.14-0.17L99.14 0ZM93.79-2.15L93.79-2.15Q94.40-2.15 94.81-2.41Q95.21-2.68 95.39-3.01L95.39-3.01L95.39-4.70L94.43-4.70Q92.71-4.70 92.71-3.15L92.71-3.15Q92.71-2.71 93.02-2.43Q93.32-2.15 93.79-2.15ZM106.96-10.64L106.90-7.59L105.82-7.67Q104.27-7.67 103.83-6.69L103.83-6.69L103.83 0L100.54 0L100.54-10.57L103.62-10.57L103.73-9.21Q104.56-10.76 106.04-10.76L106.04-10.76Q106.57-10.76 106.96-10.64L106.96-10.64ZM108.03-10.57L111.11-10.57L111.22-9.33Q112.31-10.76 114.24-10.76L114.24-10.76Q115.89-10.76 116.70-9.78Q117.52-8.79 117.55-6.81L117.55-6.81L117.55 0L114.25 0L114.25-6.67Q114.25-7.47 113.93-7.85Q113.60-8.22 112.75-8.22L112.75-8.22Q111.79-8.22 111.32-7.46L111.32-7.46L111.32 0L108.03 0L108.03-10.57ZM122.84-10.57L122.84 0L119.54 0L119.54-10.57L122.84-10.57ZM119.35-13.29L119.35-13.29Q119.35-13.99 119.85-14.44Q120.36-14.89 121.17-14.89Q121.98-14.89 122.49-14.44Q123.00-13.99 123.00-13.29Q123.00-12.59 122.49-12.14Q121.98-11.69 121.17-11.69Q120.36-11.69 119.85-12.14Q119.35-12.59 119.35-13.29ZM124.80-10.57L127.89-10.57L128.00-9.33Q129.09-10.76 131.02-10.76L131.02-10.76Q132.67-10.76 133.48-9.78Q134.30-8.79 134.33-6.81L134.33-6.81L134.33 0L131.03 0L131.03-6.67Q131.03-7.47 130.70-7.85Q130.38-8.22 129.53-8.22L129.53-8.22Q128.56-8.22 128.10-7.46L128.10-7.46L128.10 0L124.80 0L124.80-10.57ZM135.76-5.24L135.76-5.36Q135.76-6.96 136.29-8.19Q136.82-9.42 137.80-10.09Q138.79-10.76 140.10-10.76L140.10-10.76Q141.75-10.76 142.68-9.65L142.68-9.65L142.79-10.57L145.78-10.57L145.78-0.40Q145.78 1.00 145.13 2.03Q144.48 3.06 143.25 3.61Q142.02 4.16 140.40 4.16L140.40 4.16Q139.24 4.16 138.15 3.72Q137.06 3.28 136.48 2.58L136.48 2.58L137.86 0.64Q138.78 1.73 140.28 1.73L140.28 1.73Q142.47 1.73 142.47-0.52L142.47-0.52L142.47-0.85Q141.52 0.20 140.08 0.20L140.08 0.20Q138.14 0.20 136.95-1.28Q135.76-2.76 135.76-5.24L135.76-5.24ZM139.06-5.16L139.06-5.16Q139.06-3.86 139.55-3.10Q140.04-2.34 140.92-2.34L140.92-2.34Q141.98-2.34 142.47-3.06L142.47-3.06L142.47-7.50Q141.99-8.22 140.94-8.22L140.94-8.22Q140.06-8.22 139.56-7.44Q139.06-6.65 139.06-5.16Z"></path></g></g></svg></svg></g></g></svg>